<svg width="32" height="32" viewBox="0 0 32 32" fill="none" xmlns="http://www.w3.org/2000/svg">
<path d="M16.8481 4.35372L27.6461 15.1517C28.402 15.9076 27.8669 17.1997 26.7979 17.1997H25.5981V24.3984C25.5981 25.353 25.2189 26.2685 24.5439 26.9435C23.8689 27.6185 22.9534 27.9977 21.9988 27.9977H20.799V19.5993C20.799 18.6812 20.4483 17.7978 19.8184 17.1298C19.1886 16.4619 18.3273 16.0598 17.4108 16.006L17.1997 16H14.8001C13.8455 16 12.93 16.3792 12.255 17.0542C11.58 17.7292 11.2008 18.6447 11.2008 19.5993V27.9977H10.001C9.04638 27.9977 8.13088 27.6185 7.45587 26.9435C6.78087 26.2685 6.40165 25.353 6.40165 24.3984V17.1997H5.20187C4.13407 17.1997 3.59777 15.9076 4.35363 15.1517L15.1516 4.35372C15.3766 4.1288 15.6817 4.00244 15.9999 4.00244C16.318 4.00244 16.6231 4.1288 16.8481 4.35372ZM17.1997 18.3995C17.5179 18.3995 17.823 18.5259 18.048 18.7509C18.273 18.9759 18.3994 19.2811 18.3994 19.5993V27.9977H13.6003V19.5993C13.6004 19.3054 13.7082 19.0218 13.9035 18.8022C14.0988 18.5826 14.3679 18.4423 14.6597 18.4079L14.8001 18.3995H17.1997Z" fill="white"/>
</svg>
